<?xml version="1.0" encoding="UTF-8"?>
<!DOCTYPE svg PUBLIC "-//W3C//DTD SVG 1.1//EN" "http://www.w3.org/Graphics/SVG/1.1/DTD/svg11.dtd">
<!-- Creator: CorelDRAW 2017 -->
<svg xmlns="http://www.w3.org/2000/svg" xml:space="preserve" width="80.1522mm" height="31.0617mm" version="1.1" style="shape-rendering:geometricPrecision; text-rendering:geometricPrecision; image-rendering:optimizeQuality; fill-rule:evenodd; clip-rule:evenodd"
viewBox="0 0 7946 3079.35"
 xmlns:xlink="http://www.w3.org/1999/xlink">
 <defs>
  <style type="text/css">
   <![CDATA[
    .fil4 {fill:none}
    .fil2 {fill:#13A2D9;fill-rule:nonzero}
    .fil0 {fill:#4D4D4D;fill-rule:nonzero}
    .fil1 {fill:#9013FE;fill-rule:nonzero}
    .fil3 {fill:#FFFC06;fill-rule:nonzero}
   ]]>
  </style>
 </defs>
 <g id="Layer_x0020_1">
  <metadata id="CorelCorpID_0Corel-Layer"/>
  <path class="fil0" d="M3709.78 1110.06c22.69,0 42.23,-3.82 58.6,-11.44 16.38,-7.63 33.49,-19.82 51.35,-36.56l42.42 43.53c-41.3,45.77 -91.44,68.65 -150.42,68.65 -58.98,0 -107.91,-18.97 -146.79,-56.92 -38.88,-37.96 -58.32,-85.95 -58.32,-144.01 0,-58.04 19.81,-106.41 59.44,-145.12 39.62,-38.69 89.67,-58.04 150.13,-58.04 60.46,0 110.98,22.33 151.54,66.98l-41.87 45.77c-18.6,-17.86 -36.18,-30.33 -52.74,-37.39 -16.56,-7.07 -36,-10.61 -58.32,-10.61 -39.45,0 -72.56,12.75 -99.35,38.24 -26.79,25.49 -40.18,58.04 -40.18,97.67 0,39.62 13.29,72.75 39.9,99.34 26.61,26.61 58.14,39.91 94.61,39.91z"/>
  <path id="1" class="fil0" d="M3994.71 1091.36c17.67,18.04 40.09,27.06 67.25,27.06 27.16,0 49.58,-9.02 67.25,-27.06 17.68,-18.05 26.51,-41.4 26.51,-70.05 0,-28.65 -8.83,-52 -26.51,-70.04 -17.68,-18.05 -40.09,-27.07 -67.25,-27.07 -27.16,0 -49.59,9.02 -67.25,27.07 -17.68,18.04 -26.52,41.39 -26.52,70.04 0,28.65 8.84,52 26.52,70.05zm178.88 38.51c-29.77,29.57 -66.98,44.36 -111.63,44.36 -44.65,0 -81.87,-14.79 -111.63,-44.36 -29.77,-29.58 -44.65,-65.77 -44.65,-108.56 0,-42.79 14.88,-78.97 44.65,-108.55 29.76,-29.58 66.98,-44.37 111.63,-44.37 44.65,0 81.86,14.79 111.63,44.37 29.76,29.58 44.65,65.77 44.65,108.55 0,42.8 -14.89,78.98 -44.65,108.56z"/>
  <path id="2" class="fil0" d="M4444.85 931.46c-30.88,0 -54.14,10.04 -69.76,30.14 -15.63,20.09 -23.45,47.07 -23.45,80.93l0 127.25 -62.52 0 0 -296.93 62.52 0 0 59.72c10.04,-18.6 23.72,-33.86 41.02,-45.76 17.3,-11.91 35.63,-18.04 54.98,-18.42l0.56 63.07c-1.12,0 -2.23,0 -3.35,0z"/>
  <path id="3" class="fil0" d="M4573.22 1009.04l0 160.74 -62.52 0 0 -296.93 62.52 0 0 54.14c10.04,-18.23 23.9,-32.56 41.58,-42.98 17.68,-10.42 36.75,-15.62 57.21,-15.62 33.49,0 60.56,10.23 81.21,30.69 20.65,20.47 30.97,50.05 30.97,88.75l0 181.96 -62.51 0 0 -162.98c0,-54.69 -22.7,-82.05 -68.1,-82.05 -21.58,0 -40.37,7.17 -56.37,21.49 -16,14.33 -24,35.25 -24,62.79z"/>
  <path id="4" class="fil0" d="M5147.55 1048.67l-232.74 0c1.49,21.58 11.34,38.98 29.58,52.19 18.23,13.2 39.07,19.82 62.51,19.82 37.22,0 65.49,-11.73 84.84,-35.16l35.72 39.07c-32,33.11 -73.68,49.67 -125.02,49.67 -41.68,0 -77.12,-13.86 -106.32,-41.58 -29.22,-27.72 -43.82,-64.93 -43.82,-111.63 0,-46.69 14.88,-83.81 44.65,-111.35 29.77,-27.53 64.84,-41.3 105.21,-41.3 40.37,0 74.69,12.18 102.97,36.56 28.28,24.37 42.42,57.95 42.42,100.74l0 42.98zm-232.74 -49.12l170.23 0c0,-24.92 -7.81,-44.09 -23.44,-57.48 -15.63,-13.4 -34.89,-20.09 -57.77,-20.09 -22.89,0 -43.44,6.98 -61.68,20.93 -18.23,13.96 -27.34,32.83 -27.34,56.65z"/>
  <path id="5" class="fil0" d="M5371.92 931.46c-30.88,0 -54.14,10.04 -69.76,30.14 -15.63,20.09 -23.45,47.07 -23.45,80.93l0 127.25 -62.52 0 0 -296.93 62.52 0 0 59.72c10.04,-18.6 23.72,-33.86 41.02,-45.76 17.3,-11.91 35.63,-18.04 54.98,-18.42l0.56 63.07c-1.12,0 -2.23,0 -3.35,0z"/>
  <path id="6" class="fil0" d="M5649.31 1081.03c0,28.28 -10.23,50.89 -30.69,67.82 -20.47,16.93 -46.7,25.39 -78.7,25.39 -21.58,0 -44,-3.91 -67.25,-11.72 -23.26,-7.81 -43.81,-18.79 -61.67,-32.93l30.14 -48.56c34.61,26.05 68.1,39.07 100.46,39.07 14.14,0 25.3,-3.25 33.49,-9.76 8.19,-6.51 12.28,-14.79 12.28,-24.83 0,-14.89 -19.73,-28.28 -59.16,-40.19 -2.97,-1.12 -5.21,-1.86 -6.7,-2.23 -61.76,-16.74 -92.64,-44.65 -92.64,-83.72 0,-27.54 10.7,-49.58 32.09,-66.14 21.39,-16.56 49.21,-24.83 83.44,-24.83 34.23,0 66.6,10.04 97.11,30.14l-23.45 46.33c-24.18,-16 -50.42,-24 -78.69,-24 -14.88,0 -26.98,2.7 -36.28,8.1 -9.3,5.39 -13.95,13.48 -13.95,24.28 0,9.67 4.84,16.74 14.51,21.21 6.69,3.35 16.09,6.51 28.18,9.49 12.09,2.97 22.79,5.96 32.09,8.93 9.3,2.97 18.33,6.32 27.07,10.04 8.74,3.73 18.13,8.93 28.18,15.63 20.09,13.39 30.14,34.23 30.14,62.51z"/>
  <path id="7" class="fil0" d="M5797.22 923.08l0 150.7c0,14.15 3.72,25.4 11.16,33.78 7.44,8.37 17.85,12.55 31.26,12.55 13.39,0 26.23,-6.51 38.5,-19.53l25.68 44.09c-21.95,19.73 -46.24,29.58 -72.84,29.58 -26.61,0 -49.3,-9.21 -68.1,-27.62 -18.79,-18.42 -28.18,-43.26 -28.18,-74.52l0 -149.02 -37.39 0 0 -50.23 37.39 0 0 -93.21 62.52 0 0 93.21 78.14 0 0 50.23 -78.14 0z"/>
  <path id="8" class="fil0" d="M6020.75 1091.36c17.67,18.04 40.09,27.06 67.25,27.06 27.16,0 49.58,-9.02 67.25,-27.06 17.68,-18.05 26.51,-41.4 26.51,-70.05 0,-28.65 -8.83,-52 -26.51,-70.04 -17.68,-18.05 -40.09,-27.07 -67.25,-27.07 -27.16,0 -49.59,9.02 -67.25,27.07 -17.68,18.04 -26.52,41.39 -26.52,70.04 0,28.65 8.84,52 26.52,70.05zm178.88 38.51c-29.77,29.57 -66.98,44.36 -111.63,44.36 -44.65,0 -81.87,-14.79 -111.63,-44.36 -29.77,-29.58 -44.65,-65.77 -44.65,-108.56 0,-42.79 14.88,-78.97 44.65,-108.55 29.76,-29.58 66.98,-44.37 111.63,-44.37 44.65,0 81.86,14.79 111.63,44.37 29.76,29.58 44.65,65.77 44.65,108.55 0,42.8 -14.89,78.98 -44.65,108.56z"/>
  <path id="9" class="fil0" d="M6377.68 1009.04l0 160.74 -62.52 0 0 -296.93 62.52 0 0 54.14c10.04,-18.23 23.9,-32.56 41.58,-42.98 17.68,-10.42 36.75,-15.62 57.21,-15.62 33.49,0 60.56,10.23 81.21,30.69 20.65,20.47 30.97,50.05 30.97,88.75l0 181.96 -62.51 0 0 -162.98c0,-54.69 -22.7,-82.05 -68.1,-82.05 -21.58,0 -40.37,7.17 -56.37,21.49 -16,14.33 -24,35.25 -24,62.79z"/>
  <path id="10" class="fil0" d="M6952.01 1048.67l-232.74 0c1.49,21.58 11.34,38.98 29.58,52.19 18.23,13.2 39.07,19.82 62.51,19.82 37.22,0 65.49,-11.73 84.84,-35.16l35.72 39.07c-32,33.11 -73.68,49.67 -125.02,49.67 -41.68,0 -77.12,-13.86 -106.32,-41.58 -29.22,-27.72 -43.82,-64.93 -43.82,-111.63 0,-46.69 14.88,-83.81 44.65,-111.35 29.77,-27.53 64.84,-41.3 105.21,-41.3 40.37,0 74.69,12.18 102.97,36.56 28.28,24.37 42.42,57.95 42.42,100.74l0 42.98zm-232.74 -49.12l170.23 0c0,-24.92 -7.81,-44.09 -23.44,-57.48 -15.63,-13.4 -34.89,-20.09 -57.77,-20.09 -22.89,0 -43.44,6.98 -61.68,20.93 -18.23,13.96 -27.34,32.83 -27.34,56.65z"/>
  <path id="11" class="fil0" d="M3665.69 1317.59c59.16,0 102.33,11.35 129.49,34.05 27.16,22.69 40.75,57.67 40.75,104.93 0,47.26 -13.87,81.86 -41.59,103.82 -27.72,21.95 -70.23,32.92 -127.53,32.92l-69.21 0 0 114.42 -65.87 0 0 -390.14 133.95 0zm8.38 216c36.46,0 61.3,-6.97 74.51,-20.93 13.2,-13.95 19.81,-34.42 19.81,-61.4 0,-26.98 -8.37,-46.05 -25.11,-57.21 -16.74,-11.16 -42.98,-16.74 -78.69,-16.74l-66.98 0 0 156.28 76.46 0z"/>
  <path id="12" class="fil0" d="M4180.85 1586.62l-232.74 0c1.49,21.58 11.34,38.98 29.58,52.19 18.23,13.2 39.07,19.82 62.51,19.82 37.22,0 65.49,-11.73 84.84,-35.16l35.72 39.07c-32,33.11 -73.68,49.67 -125.02,49.67 -41.68,0 -77.12,-13.86 -106.32,-41.58 -29.22,-27.72 -43.82,-64.93 -43.82,-111.63 0,-46.69 14.88,-83.81 44.65,-111.35 29.77,-27.53 64.84,-41.3 105.21,-41.3 40.37,0 74.69,12.18 102.97,36.56 28.28,24.37 42.42,57.95 42.42,100.74l0 42.98zm-232.74 -49.12l170.23 0c0,-24.92 -7.81,-44.09 -23.44,-57.48 -15.63,-13.4 -34.89,-20.09 -57.77,-20.09 -22.89,0 -43.44,6.98 -61.68,20.93 -18.23,13.96 -27.34,32.83 -27.34,56.65z"/>
  <path id="13" class="fil0" d="M4405.22 1469.41c-30.88,0 -54.14,10.04 -69.76,30.14 -15.63,20.09 -23.45,47.07 -23.45,80.93l0 127.25 -62.52 0 0 -296.93 62.52 0 0 59.72c10.04,-18.6 23.72,-33.86 41.02,-45.76 17.3,-11.91 35.63,-18.04 54.98,-18.42l0.56 63.07c-1.12,0 -2.23,0 -3.35,0z"/>
  <path id="14" class="fil0" d="M4548.1 1386.24l0 24.56 78.14 0 0 50.23 -78.14 0 0 246.7 -62.52 0 0 -246.7 -37.39 0 0 -50.23 37.39 0 0 -22.88c0,-31.26 9.4,-56.09 28.18,-74.51 18.8,-18.42 41.49,-27.63 68.1,-27.63 26.6,0 50.89,9.86 72.84,29.58l-25.68 44.1c-12.27,-13.03 -25.11,-19.54 -38.5,-19.54 -13.4,0 -23.82,4.19 -31.26,12.56 -7.45,8.38 -11.16,19.63 -11.16,33.77z"/>
  <path id="15" class="fil0" d="M4748.75 1629.32c17.67,18.04 40.09,27.06 67.25,27.06 27.16,0 49.58,-9.02 67.25,-27.06 17.68,-18.05 26.51,-41.4 26.51,-70.05 0,-28.65 -8.83,-52 -26.51,-70.04 -17.68,-18.05 -40.09,-27.07 -67.25,-27.07 -27.16,0 -49.59,9.02 -67.25,27.07 -17.68,18.04 -26.52,41.39 -26.52,70.04 0,28.65 8.84,52 26.52,70.05zm178.88 38.51c-29.77,29.57 -66.98,44.36 -111.63,44.36 -44.65,0 -81.87,-14.79 -111.63,-44.36 -29.77,-29.58 -44.65,-65.77 -44.65,-108.56 0,-42.79 14.88,-78.97 44.65,-108.55 29.76,-29.58 66.98,-44.37 111.63,-44.37 44.65,0 81.86,14.79 111.63,44.37 29.76,29.58 44.65,65.77 44.65,108.55 0,42.8 -14.89,78.98 -44.65,108.56z"/>
  <path id="16" class="fil0" d="M5198.89 1469.41c-30.88,0 -54.14,10.04 -69.76,30.14 -15.63,20.09 -23.45,47.07 -23.45,80.93l0 127.25 -62.52 0 0 -296.93 62.52 0 0 59.72c10.04,-18.6 23.72,-33.86 41.02,-45.76 17.3,-11.91 35.63,-18.04 54.98,-18.42l0.56 63.07c-1.12,0 -2.23,0 -3.35,0z"/>
  <path id="17" class="fil0" d="M5327.26 1546.99l0 160.74 -62.52 0 0 -296.93 62.52 0 0 54.14c8.93,-18.23 22.41,-32.56 40.47,-42.98 18.04,-10.42 37.48,-15.62 58.32,-15.62 46.88,0 78.69,19.35 95.44,58.04 29.39,-38.69 66.04,-58.04 109.95,-58.04 33.49,0 60.56,10.23 81.21,30.69 20.65,20.47 30.98,50.05 30.98,88.75l0 181.96 -62.52 0 0 -162.98c0,-54.69 -22.69,-82.05 -68.09,-82.05 -21.22,0 -39.72,6.79 -55.54,20.37 -15.82,13.58 -24.1,33.4 -24.84,59.44l0 165.21 -62.51 0 0 -162.98c0,-28.27 -5.03,-49.02 -15.07,-62.23 -10.05,-13.2 -25.86,-19.82 -47.45,-19.82 -21.58,0 -40.37,7.17 -56.37,21.49 -16,14.33 -24,35.25 -24,62.79z"/>
  <path id="18" class="fil0" d="M6071.26 1707.73l-56.93 0 0 -39.62c-24.56,29.39 -57.49,44.09 -98.79,44.09 -30.88,0 -56.47,-8.74 -76.74,-26.23 -20.28,-17.49 -30.42,-40.83 -30.42,-70.04 0,-29.22 10.8,-51.08 32.38,-65.59 21.58,-14.5 50.79,-21.76 87.63,-21.76l80.93 0 0 -11.16c0,-39.45 -21.95,-59.16 -65.86,-59.16 -27.54,0 -56.19,10.04 -85.95,30.14l-27.91 -39.07c36.09,-28.65 77.02,-42.98 122.79,-42.98 34.98,0 63.54,8.83 85.67,26.51 22.14,17.68 33.21,45.49 33.21,83.44l0 191.44zm-62.52 -110.51l0 -25.12 -70.33 0c-45.02,0 -67.53,14.14 -67.53,42.42 0,14.51 5.58,25.58 16.74,33.21 11.16,7.62 26.7,11.44 46.6,11.44 19.91,0 37.31,-5.58 52.19,-16.74 14.88,-11.16 22.33,-26.23 22.33,-45.21z"/>
  <path id="19" class="fil0" d="M6220.84 1546.99l0 160.74 -62.52 0 0 -296.93 62.52 0 0 54.14c10.04,-18.23 23.9,-32.56 41.58,-42.98 17.68,-10.42 36.75,-15.62 57.21,-15.62 33.49,0 60.56,10.23 81.21,30.69 20.65,20.47 30.97,50.05 30.97,88.75l0 181.96 -62.51 0 0 -162.98c0,-54.69 -22.7,-82.05 -68.1,-82.05 -21.58,0 -40.37,7.17 -56.37,21.49 -16,14.33 -24,35.25 -24,62.79z"/>
  <path id="20" class="fil0" d="M6650.61 1712.2c-41.3,0 -76.84,-14.04 -106.6,-42.13 -29.77,-28.1 -44.65,-64.84 -44.65,-110.24 0,-45.39 15.53,-82.32 46.6,-110.78 31.07,-28.46 68.93,-42.7 113.58,-42.7 44.65,0 82.42,15.45 113.3,46.33l-36.84 45.21c-25.68,-22.33 -51.53,-33.49 -77.58,-33.49 -26.04,0 -48.65,8.65 -67.81,25.95 -19.16,17.3 -28.75,39.62 -28.75,66.98 0,27.35 9.5,50.51 28.47,69.48 18.97,18.98 42.32,28.47 70.04,28.47 27.73,0 53.86,-12.65 78.43,-37.96l36.83 40.19c-36.09,36.46 -77.76,54.69 -125.02,54.69z"/>
  <path id="21" class="fil0" d="M7116.66 1586.62l-232.74 0c1.49,21.58 11.34,38.98 29.58,52.19 18.23,13.2 39.07,19.82 62.51,19.82 37.22,0 65.49,-11.73 84.84,-35.16l35.72 39.07c-32,33.11 -73.68,49.67 -125.02,49.67 -41.68,0 -77.12,-13.86 -106.32,-41.58 -29.22,-27.72 -43.82,-64.93 -43.82,-111.63 0,-46.69 14.88,-83.81 44.65,-111.35 29.77,-27.53 64.84,-41.3 105.21,-41.3 40.37,0 74.69,12.18 102.97,36.56 28.28,24.37 42.42,57.95 42.42,100.74l0 42.98zm-232.74 -49.12l170.23 0c0,-24.92 -7.81,-44.09 -23.44,-57.48 -15.63,-13.4 -34.89,-20.09 -57.77,-20.09 -22.89,0 -43.44,6.98 -61.68,20.93 -18.23,13.96 -27.34,32.83 -27.34,56.65z"/>
  <path id="22" class="fil0" d="M3649.79 1906.9c-19.16,0 -34.89,3.91 -47.17,11.72 -12.27,7.81 -18.42,19.63 -18.42,35.44 0,15.81 6.15,27.91 18.42,36.28 12.28,8.37 38.43,17.39 78.42,27.06 40,9.68 70.14,23.26 90.42,40.75 20.28,17.49 30.42,43.25 30.42,77.31 0,34.04 -12.84,61.67 -38.5,82.88 -25.68,21.22 -59.35,31.81 -101.03,31.81 -61.02,0 -115.16,-21.02 -162.42,-63.07l41.3 -49.67c39.45,34.23 80.37,51.34 122.79,51.34 21.22,0 38.05,-4.55 50.51,-13.67 12.47,-9.12 18.7,-21.21 18.7,-36.27 0,-15.08 -5.86,-26.8 -17.58,-35.16 -11.72,-8.38 -31.91,-16 -60.56,-22.89 -28.65,-6.88 -50.41,-13.2 -65.3,-18.97 -14.88,-5.77 -28.09,-13.3 -39.62,-22.6 -23.07,-17.49 -34.61,-44.27 -34.61,-80.37 0,-36.1 13.12,-63.91 39.36,-83.44 26.23,-19.54 58.69,-29.3 97.39,-29.3 24.93,0 49.68,4.09 74.23,12.28 24.56,8.19 45.76,19.72 63.63,34.6l-35.16 49.68c-11.53,-10.42 -27.16,-18.97 -46.88,-25.68 -19.72,-6.69 -39.16,-10.04 -58.32,-10.04z"/>
  <path id="23" class="fil0" d="M3943.92 2167.27c17.67,18.04 40.09,27.06 67.25,27.06 27.16,0 49.58,-9.02 67.25,-27.06 17.68,-18.05 26.51,-41.4 26.51,-70.05 0,-28.65 -8.83,-52 -26.51,-70.04 -17.68,-18.05 -40.09,-27.07 -67.25,-27.07 -27.16,0 -49.59,9.02 -67.25,27.07 -17.68,18.04 -26.52,41.39 -26.52,70.04 0,28.65 8.84,52 26.52,70.05zm178.88 38.51c-29.77,29.57 -66.98,44.36 -111.63,44.36 -44.65,0 -81.87,-14.79 -111.63,-44.36 -29.77,-29.58 -44.65,-65.77 -44.65,-108.56 0,-42.79 14.88,-78.97 44.65,-108.55 29.76,-29.58 66.98,-44.37 111.63,-44.37 44.65,0 81.86,14.79 111.63,44.37 29.76,29.58 44.65,65.77 44.65,108.55 0,42.8 -14.89,78.98 -44.65,108.56z"/>
  <polygon id="24" class="fil0" points="4300.86,2245.69 4238.34,2245.69 4238.34,1831.55 4300.86,1831.55 "/>
  <path id="25" class="fil0" d="M4598.9 2109.5l0 -160.75 62.52 0 0 296.93 -62.52 0 0 -54.14c-10.04,18.23 -23.91,32.56 -41.58,42.98 -17.68,10.42 -36.75,15.62 -57.21,15.62 -33.49,0 -60.56,-10.23 -81.21,-30.69 -20.65,-20.46 -30.97,-50.04 -30.97,-88.75l0 -181.96 62.51 0 0 162.98c0,54.69 22.7,82.05 68.1,82.05 21.58,0 40.37,-7.16 56.37,-21.48 16,-14.33 24,-35.26 24,-62.79z"/>
  <path id="26" class="fil0" d="M4828.86 1998.99l0 150.7c0,14.15 3.72,25.4 11.16,33.78 7.44,8.37 17.85,12.55 31.26,12.55 13.39,0 26.23,-6.51 38.5,-19.53l25.68 44.09c-21.95,19.73 -46.24,29.58 -72.84,29.58 -26.61,0 -49.3,-9.21 -68.1,-27.62 -18.79,-18.42 -28.18,-43.26 -28.18,-74.52l0 -149.02 -37.39 0 0 -50.23 37.39 0 0 -93.21 62.52 0 0 93.21 78.14 0 0 50.23 -78.14 0z"/>
  <path id="27" class="fil0" d="M5047.64 2245.69l-62.52 0 0 -296.93 62.52 0 0 296.93zm-58.61 -356.09c-7.81,-7.82 -11.72,-17.12 -11.72,-27.91 0,-10.8 3.91,-20.09 11.72,-27.91 7.82,-7.82 17.12,-11.73 27.91,-11.73 10.8,0 20.09,3.91 27.91,11.73 7.82,7.81 11.73,17.11 11.73,27.91 0,10.79 -3.91,20.09 -11.73,27.91 -7.81,7.81 -17.11,11.72 -27.91,11.72 -10.79,0 -20.09,-3.91 -27.91,-11.72z"/>
  <path id="28" class="fil0" d="M5207.55 2167.27c17.67,18.04 40.09,27.06 67.25,27.06 27.16,0 49.58,-9.02 67.25,-27.06 17.68,-18.05 26.51,-41.4 26.51,-70.05 0,-28.65 -8.83,-52 -26.51,-70.04 -17.68,-18.05 -40.09,-27.07 -67.25,-27.07 -27.16,0 -49.59,9.02 -67.25,27.07 -17.68,18.04 -26.52,41.39 -26.52,70.04 0,28.65 8.84,52 26.52,70.05zm178.88 38.51c-29.77,29.57 -66.98,44.36 -111.63,44.36 -44.65,0 -81.87,-14.79 -111.63,-44.36 -29.77,-29.58 -44.65,-65.77 -44.65,-108.56 0,-42.79 14.88,-78.97 44.65,-108.55 29.76,-29.58 66.98,-44.37 111.63,-44.37 44.65,0 81.86,14.79 111.63,44.37 29.76,29.58 44.65,65.77 44.65,108.55 0,42.8 -14.89,78.98 -44.65,108.56z"/>
  <path id="29" class="fil0" d="M5564.48 2084.95l0 160.74 -62.52 0 0 -296.93 62.52 0 0 54.14c10.04,-18.23 23.9,-32.56 41.58,-42.98 17.68,-10.42 36.75,-15.62 57.21,-15.62 33.49,0 60.56,10.23 81.21,30.69 20.65,20.47 30.97,50.05 30.97,88.75l0 181.96 -62.51 0 0 -162.98c0,-54.69 -22.7,-82.05 -68.1,-82.05 -21.58,0 -40.37,7.17 -56.37,21.49 -16,14.33 -24,35.25 -24,62.79z"/>
  <path id="30" class="fil0" d="M6074.06 2156.94c0,28.28 -10.23,50.89 -30.69,67.82 -20.47,16.93 -46.7,25.39 -78.7,25.39 -21.58,0 -44,-3.91 -67.25,-11.72 -23.26,-7.81 -43.81,-18.79 -61.67,-32.93l30.14 -48.56c34.61,26.05 68.1,39.07 100.46,39.07 14.14,0 25.3,-3.25 33.49,-9.76 8.19,-6.51 12.28,-14.79 12.28,-24.83 0,-14.89 -19.73,-28.28 -59.16,-40.19 -2.97,-1.12 -5.21,-1.86 -6.7,-2.23 -61.76,-16.74 -92.64,-44.65 -92.64,-83.72 0,-27.54 10.7,-49.58 32.09,-66.14 21.39,-16.56 49.21,-24.83 83.44,-24.83 34.23,0 66.6,10.04 97.11,30.14l-23.45 46.33c-24.18,-16 -50.42,-24 -78.69,-24 -14.88,0 -26.98,2.7 -36.28,8.1 -9.3,5.39 -13.95,13.48 -13.95,24.28 0,9.67 4.84,16.74 14.51,21.21 6.69,3.35 16.09,6.51 28.18,9.49 12.09,2.97 22.79,5.96 32.09,8.93 9.3,2.97 18.33,6.32 27.07,10.04 8.74,3.73 18.13,8.93 28.18,15.63 20.09,13.39 30.14,34.23 30.14,62.51z"/>
  <path class="fil1" d="M843 1501.07l416.15 0c3.92,324.92 270.42,587.12 598.62,587.12 328.19,0 594.7,-262.2 598.61,-587.12l416.15 0c-3.93,553.09 -456.74,1000.27 -1014.76,1000.27 -558.02,0 -1010.84,-447.17 -1014.77,-1000.27z"/>
  <path class="fil2" d="M1444.61 1211.14c124.1,0 224.7,-100.6 224.7,-224.7 0,-124.1 -100.6,-224.69 -224.7,-224.69 -124.1,0 -224.69,100.59 -224.69,224.69 0,124.1 100.59,224.7 224.69,224.7z"/>
  <polygon class="fil3" points="2220.18,761.74 2872.53,761.74 2872.53,1167.65 2220.18,1167.65 "/>
  <rect class="fil4" y="-0" width="7946" height="3079.35"/>
 </g>
</svg>
